<svg width="106" height="105" viewBox="0 0 106 105" fill="none" xmlns="http://www.w3.org/2000/svg">
<rect width="106" height="105" rx="25" fill="white"/>
<path d="M16.2812 35.5H31.3438C34.7604 35.5 37.6458 36.0208 40 37.0625C42.375 38.1042 44.1771 39.6458 45.4062 41.6875C46.6562 43.7083 47.2812 46.1979 47.2812 49.1562C47.2812 51.2396 46.8542 53.1458 46 54.875C45.1667 56.5833 43.9583 58.0417 42.375 59.25C40.8125 60.4375 38.9375 61.3229 36.75 61.9062L35.0625 62.5625H20.9062L20.8438 57.6562H31.5312C33.6979 57.6562 35.5 57.2812 36.9375 56.5312C38.375 55.7604 39.4583 54.7292 40.1875 53.4375C40.9167 52.1458 41.2812 50.7188 41.2812 49.1562C41.2812 47.4062 40.9375 45.875 40.25 44.5625C39.5625 43.25 38.4792 42.2396 37 41.5312C35.5417 40.8021 33.6562 40.4375 31.3438 40.4375H22.3125V81H16.2812V35.5ZM42.875 81L31.8125 60.375L38.0938 60.3438L49.3125 80.625V81H42.875ZM83.1875 66.5312H89.1875C88.875 69.4062 88.0521 71.9792 86.7188 74.25C85.3854 76.5208 83.5 78.3229 81.0625 79.6562C78.625 80.9688 75.5833 81.625 71.9375 81.625C69.2708 81.625 66.8438 81.125 64.6562 80.125C62.4896 79.125 60.625 77.7083 59.0625 75.875C57.5 74.0208 56.2917 71.8021 55.4375 69.2188C54.6042 66.6146 54.1875 63.7188 54.1875 60.5312V56C54.1875 52.8125 54.6042 49.9271 55.4375 47.3438C56.2917 44.7396 57.5104 42.5104 59.0938 40.6562C60.6979 38.8021 62.625 37.375 64.875 36.375C67.125 35.375 69.6562 34.875 72.4688 34.875C75.9062 34.875 78.8125 35.5208 81.1875 36.8125C83.5625 38.1042 85.4062 39.8958 86.7188 42.1875C88.0521 44.4583 88.875 47.0938 89.1875 50.0938H83.1875C82.8958 47.9688 82.3542 46.1458 81.5625 44.625C80.7708 43.0833 79.6458 41.8958 78.1875 41.0625C76.7292 40.2292 74.8229 39.8125 72.4688 39.8125C70.4479 39.8125 68.6667 40.1979 67.125 40.9688C65.6042 41.7396 64.3229 42.8333 63.2812 44.25C62.2604 45.6667 61.4896 47.3646 60.9688 49.3438C60.4479 51.3229 60.1875 53.5208 60.1875 55.9375V60.5312C60.1875 62.7604 60.4167 64.8542 60.875 66.8125C61.3542 68.7708 62.0729 70.4896 63.0312 71.9688C63.9896 73.4479 65.2083 74.6146 66.6875 75.4688C68.1667 76.3021 69.9167 76.7188 71.9375 76.7188C74.5 76.7188 76.5417 76.3125 78.0625 75.5C79.5833 74.6875 80.7292 73.5208 81.5 72C82.2917 70.4792 82.8542 68.6562 83.1875 66.5312Z" fill="black"/>
<path d="M82.5 85.5L106 66V80C106 93.8071 94.8071 105 81 105H61L82.5 85.5Z" fill="#27292E"/>
</svg>
